<?xml version="1.0" encoding="UTF-8" standalone="no"?>
<svg width="60px" height="60px" viewBox="0 0 60 60" version="1.1" xmlns="http://www.w3.org/2000/svg" xmlns:xlink="http://www.w3.org/1999/xlink">
    <!-- Generator: Sketch 3.7.2 (28276) - http://www.bohemiancoding.com/sketch -->
    <title>Reading</title>
    <desc>Created with Sketch.</desc>
    <defs>
        <polygon id="path-1" points="0 2219 900.589 2219 900.589 0.579 0 0.579"></polygon>
        <polygon id="path-3" points="0 2219 900.589 2219 900.589 0.579 0 0.579"></polygon>
        <polygon id="path-5" points="0 2219 900.589 2219 900.589 0.579 0 0.579"></polygon>
        <polygon id="path-7" points="0 2219 900.589 2219 900.589 0.579 0 0.579"></polygon>
        <polygon id="path-9" points="0 2219 900.589 2219 900.589 0.579 0 0.579"></polygon>
        <polygon id="path-11" points="0 2219 900.589 2219 900.589 0.579 0 0.579"></polygon>
        <polygon id="path-13" points="0 2219 900.589 2219 900.589 0.579 0 0.579"></polygon>
        <polygon id="path-15" points="0 2219 900.589 2219 900.589 0.579 0 0.579"></polygon>
        <polygon id="path-17" points="0 2219 900.589 2219 900.589 0.579 0 0.579"></polygon>
        <polygon id="path-19" points="0 2219 900.589 2219 900.589 0.579 0 0.579"></polygon>
        <polygon id="path-21" points="0 2219 900.589 2219 900.589 0.579 0 0.579"></polygon>
        <polygon id="path-23" points="0 2219 900.589 2219 900.589 0.579 0 0.579"></polygon>
        <polygon id="path-25" points="0 2219 900.589 2219 900.589 0.579 0 0.579"></polygon>
        <polygon id="path-27" points="0 2219 900.589 2219 900.589 0.579 0 0.579"></polygon>
        <polygon id="path-29" points="0 2219 900.589 2219 900.589 0.579 0 0.579"></polygon>
        <polygon id="path-31" points="0 2219 900.589 2219 900.589 0.579 0 0.579"></polygon>
        <polygon id="path-33" points="0 2219 900.589 2219 900.589 0.579 0 0.579"></polygon>
        <polygon id="path-35" points="0 2219 900.589 2219 900.589 0.579 0 0.579"></polygon>
        <polygon id="path-37" points="0 2219 900.589 2219 900.589 0.579 0 0.579"></polygon>
        <polygon id="path-39" points="0 2219 900.589 2219 900.589 0.579 0 0.579"></polygon>
        <polygon id="path-41" points="0 2219 900.589 2219 900.589 0.579 0 0.579"></polygon>
        <polygon id="path-43" points="0 2219 900.589 2219 900.589 0.579 0 0.579"></polygon>
        <polygon id="path-45" points="0 2219 900.589 2219 900.589 0.579 0 0.579"></polygon>
        <polygon id="path-47" points="0 2219 900.589 2219 900.589 0.579 0 0.579"></polygon>
        <polygon id="path-49" points="0 2219 900.589 2219 900.589 0.579 0 0.579"></polygon>
        <polygon id="path-51" points="0 2219 900.589 2219 900.589 0.579 0 0.579"></polygon>
        <polygon id="path-53" points="0 2219 900.589 2219 900.589 0.579 0 0.579"></polygon>
        <polygon id="path-55" points="0 2219 900.589 2219 900.589 0.579 0 0.579"></polygon>
        <polygon id="path-57" points="0 2219 900.589 2219 900.589 0.579 0 0.579"></polygon>
        <polygon id="path-59" points="0 2219 900.589 2219 900.589 0.579 0 0.579"></polygon>
        <polygon id="path-61" points="0 2219 900.589 2219 900.589 0.579 0 0.579"></polygon>
    </defs>
    <g id="outlined" stroke="none" stroke-width="1" fill="none" fill-rule="evenodd">
        <g id="Activities_sliced" transform="translate(-600.000000, 0.000000)"></g>
        <g id="Page-1" transform="translate(-599.532742, 0.639841)">
            <g id="Group-72" transform="translate(127.000000, 2.420000)" fill="#3A3B3C">
                <path d="M490.0893,41.0288 C494.9153,41.0288 499.5083,41.5638 501.5893,41.8448 L501.5893,10.8368 C499.7063,10.5788 494.9463,9.9998 490.0893,9.9998 C485.2323,9.9998 480.4723,10.5788 478.5893,10.8368 L478.5893,41.8448 C480.6703,41.5638 485.2633,41.0288 490.0893,41.0288 M502.5893,43.9998 C502.5363,43.9998 502.4853,43.9958 502.4323,43.9878 C502.3713,43.9778 496.3333,43.0288 490.0893,43.0288 C483.8453,43.0288 477.8073,43.9778 477.7463,43.9878 C477.4563,44.0338 477.1633,43.9508 476.9403,43.7608 C476.7173,43.5708 476.5893,43.2928 476.5893,42.9998 L476.5893,9.9708 C476.5893,9.4798 476.9463,9.0608 477.4333,8.9838 C477.6863,8.9438 483.7053,7.9998 490.0893,7.9998 C496.4733,7.9998 502.4923,8.9438 502.7453,8.9838 C503.2323,9.0608 503.5893,9.4798 503.5893,9.9708 L503.5893,42.9998 C503.5893,43.2928 503.4613,43.5708 503.2383,43.7608 C503.0563,43.9158 502.8253,43.9998 502.5893,43.9998" id="Fill-50"></path>
                <path d="M515.0893,41.0288 C519.9153,41.0288 524.5083,41.5638 526.5893,41.8448 L526.5893,10.8368 C524.7063,10.5788 519.9463,9.9998 515.0893,9.9998 C510.2323,9.9998 505.4723,10.5788 503.5893,10.8368 L503.5893,41.8448 C505.6703,41.5638 510.2633,41.0288 515.0893,41.0288 M527.5893,43.9998 C527.5363,43.9998 527.4853,43.9958 527.4323,43.9878 C527.3713,43.9778 521.3333,43.0288 515.0893,43.0288 C508.8453,43.0288 502.8073,43.9778 502.7463,43.9878 C502.4573,44.0338 502.1623,43.9508 501.9403,43.7608 C501.7173,43.5708 501.5893,43.2928 501.5893,42.9998 L501.5893,9.9708 C501.5893,9.4798 501.9463,9.0608 502.4333,8.9838 C502.6863,8.9438 508.7053,7.9998 515.0893,7.9998 C521.4733,7.9998 527.4923,8.9438 527.7453,8.9838 C528.2323,9.0608 528.5893,9.4798 528.5893,9.9708 L528.5893,42.9998 C528.5893,43.2928 528.4613,43.5708 528.2383,43.7608 C528.0563,43.9158 527.8253,43.9998 527.5893,43.9998" id="Fill-51"></path>
                <path d="M502.5893,51 C500.3833,51 498.5893,49.206 498.5893,47 C498.5893,46.448 499.0363,46 499.5893,46 C500.1423,46 500.5893,46.448 500.5893,47 C500.5893,48.103 501.4863,49 502.5893,49 C503.6923,49 504.5893,48.103 504.5893,47 C504.5893,46.448 505.0363,46 505.5893,46 L527.7173,46 C528.2703,46 528.7173,46.448 528.7173,47 C528.7173,47.552 528.2703,48 527.7173,48 L506.4623,48 C506.0183,49.723 504.4493,51 502.5893,51" id="Fill-52"></path>
                <path d="M499.6118,48 L477.5898,48 C477.0368,48 476.5898,47.552 476.5898,47 C476.5898,46.448 477.0368,46 477.5898,46 L499.6118,46 C500.1648,46 500.6118,46.448 500.6118,47 C500.6118,47.552 500.1648,48 499.6118,48" id="Fill-53"></path>
                <path d="M480.589,16 L483.589,16 L483.589,14 L480.589,14 L480.589,16 Z M485.589,16 L488.589,16 L488.589,14 L485.589,14 L485.589,16 Z M490.589,16 L493.589,16 L493.589,14 L490.589,14 L490.589,16 Z M495.589,16 L498.589,16 L498.589,14 L495.589,14 L495.589,16 Z" id="Fill-54"></path>
                <path d="M505.589,21 L508.589,21 L508.589,19 L505.589,19 L505.589,21 Z M510.589,21 L513.589,21 L513.589,19 L510.589,19 L510.589,21 Z M515.589,21 L518.589,21 L518.589,19 L515.589,19 L515.589,21 Z M520.589,21 L523.589,21 L523.589,19 L520.589,19 L520.589,21 Z" id="Fill-55"></path>
                <path d="M480.589,21 L483.589,21 L483.589,19 L480.589,19 L480.589,21 Z M485.589,21 L488.589,21 L488.589,19 L485.589,19 L485.589,21 Z M490.589,21 L493.589,21 L493.589,19 L490.589,19 L490.589,21 Z M495.589,21 L498.589,21 L498.589,19 L495.589,19 L495.589,21 Z" id="Fill-56"></path>
                <path d="M505.589,26 L508.589,26 L508.589,24 L505.589,24 L505.589,26 Z M510.589,26 L513.589,26 L513.589,24 L510.589,24 L510.589,26 Z M515.589,26 L518.589,26 L518.589,24 L515.589,24 L515.589,26 Z M520.589,26 L523.589,26 L523.589,24 L520.589,24 L520.589,26 Z" id="Fill-57"></path>
                <path d="M480.589,26 L483.589,26 L483.589,24 L480.589,24 L480.589,26 Z M485.589,26 L488.589,26 L488.589,24 L485.589,24 L485.589,26 Z M490.589,26 L493.589,26 L493.589,24 L490.589,24 L490.589,26 Z M495.589,26 L498.589,26 L498.589,24 L495.589,24 L495.589,26 Z" id="Fill-58"></path>
                <path d="M505.589,31 L508.589,31 L508.589,29 L505.589,29 L505.589,31 Z M510.589,31 L513.589,31 L513.589,29 L510.589,29 L510.589,31 Z M515.589,31 L518.589,31 L518.589,29 L515.589,29 L515.589,31 Z M520.589,31 L523.589,31 L523.589,29 L520.589,29 L520.589,31 Z" id="Fill-59"></path>
            </g>
            <g id="Group-93" transform="translate(6.000000, 4.420000)"></g>
            <g id="Group-141" transform="translate(0.000000, 0.420000)">
                <mask id="mask-2" fill="white">
                    <use xlink:href="#path-1"></use>
                </mask>
                <g id="Clip-112"></g>
            </g>
            <g id="Group-203" transform="translate(0.000000, 0.420000)">
                <mask id="mask-4" fill="white">
                    <use xlink:href="#path-3"></use>
                </mask>
                <g id="Clip-171"></g>
            </g>
            <g id="Group-216" transform="translate(0.000000, 0.420000)">
                <mask id="mask-6" fill="white">
                    <use xlink:href="#path-5"></use>
                </mask>
                <g id="Clip-212"></g>
            </g>
            <g id="Group-348" transform="translate(0.000000, 0.420000)">
                <mask id="mask-8" fill="white">
                    <use xlink:href="#path-7"></use>
                </mask>
                <g id="Clip-337"></g>
            </g>
            <g id="Group-359" transform="translate(0.000000, 0.420000)">
                <mask id="mask-10" fill="white">
                    <use xlink:href="#path-9"></use>
                </mask>
                <g id="Clip-355"></g>
            </g>
            <g id="Group-481" transform="translate(0.000000, 0.420000)">
                <mask id="mask-12" fill="white">
                    <use xlink:href="#path-11"></use>
                </mask>
                <g id="Clip-477"></g>
            </g>
            <g id="Group-700" transform="translate(0.000000, 0.420000)">
                <mask id="mask-14" fill="white">
                    <use xlink:href="#path-13"></use>
                </mask>
                <g id="Clip-694"></g>
            </g>
            <g id="Group-747" transform="translate(0.000000, 0.420000)">
                <mask id="mask-16" fill="white">
                    <use xlink:href="#path-15"></use>
                </mask>
                <g id="Clip-735"></g>
            </g>
            <g id="Group-929" transform="translate(0.000000, 0.420000)">
                <mask id="mask-18" fill="white">
                    <use xlink:href="#path-17"></use>
                </mask>
                <g id="Clip-920"></g>
            </g>
            <g id="Group-981" transform="translate(0.000000, 0.420000)">
                <mask id="mask-20" fill="white">
                    <use xlink:href="#path-19"></use>
                </mask>
                <g id="Clip-977"></g>
            </g>
            <g id="Group-990" transform="translate(0.000000, 0.420000)">
                <mask id="mask-22" fill="white">
                    <use xlink:href="#path-21"></use>
                </mask>
                <g id="Clip-988"></g>
            </g>
            <g id="Group-1036" transform="translate(0.000000, 0.420000)">
                <mask id="mask-24" fill="white">
                    <use xlink:href="#path-23"></use>
                </mask>
                <g id="Clip-1028"></g>
            </g>
            <g id="Group-1062" transform="translate(0.000000, 0.420000)">
                <mask id="mask-26" fill="white">
                    <use xlink:href="#path-25"></use>
                </mask>
                <g id="Clip-1061"></g>
            </g>
            <g id="Group-1094" transform="translate(0.000000, 0.420000)">
                <mask id="mask-28" fill="white">
                    <use xlink:href="#path-27"></use>
                </mask>
                <g id="Clip-1092"></g>
            </g>
            <g id="Group-1172" transform="translate(0.000000, 0.420000)">
                <mask id="mask-30" fill="white">
                    <use xlink:href="#path-29"></use>
                </mask>
                <g id="Clip-1147"></g>
            </g>
            <g id="Group-1272" transform="translate(0.000000, 0.420000)">
                <mask id="mask-32" fill="white">
                    <use xlink:href="#path-31"></use>
                </mask>
                <g id="Clip-1253"></g>
            </g>
            <g id="Group-1296" transform="translate(0.000000, 0.420000)">
                <mask id="mask-34" fill="white">
                    <use xlink:href="#path-33"></use>
                </mask>
                <g id="Clip-1294"></g>
            </g>
            <g id="Group-1341" transform="translate(0.000000, 0.420000)">
                <mask id="mask-36" fill="white">
                    <use xlink:href="#path-35"></use>
                </mask>
                <g id="Clip-1330"></g>
            </g>
            <g id="Group-1373" transform="translate(0.000000, 0.420000)">
                <mask id="mask-38" fill="white">
                    <use xlink:href="#path-37"></use>
                </mask>
                <g id="Clip-1353"></g>
            </g>
            <g id="Group-1440" transform="translate(0.000000, 0.420000)">
                <mask id="mask-40" fill="white">
                    <use xlink:href="#path-39"></use>
                </mask>
                <g id="Clip-1406"></g>
            </g>
            <g id="Group-1452" transform="translate(0.000000, 0.420000)">
                <mask id="mask-42" fill="white">
                    <use xlink:href="#path-41"></use>
                </mask>
                <g id="Clip-1449"></g>
            </g>
            <g id="Group-1504" transform="translate(0.000000, 0.420000)">
                <mask id="mask-44" fill="white">
                    <use xlink:href="#path-43"></use>
                </mask>
                <g id="Clip-1502"></g>
            </g>
            <g id="Group-1618" transform="translate(0.000000, 0.420000)">
                <mask id="mask-46" fill="white">
                    <use xlink:href="#path-45"></use>
                </mask>
                <g id="Clip-1617"></g>
            </g>
            <g id="Group-1633" transform="translate(0.000000, 0.420000)">
                <mask id="mask-48" fill="white">
                    <use xlink:href="#path-47"></use>
                </mask>
                <g id="Clip-1625"></g>
            </g>
            <g id="Group-1712" transform="translate(0.000000, 0.420000)">
                <mask id="mask-50" fill="white">
                    <use xlink:href="#path-49"></use>
                </mask>
                <g id="Clip-1711"></g>
            </g>
            <g id="Group-1800" transform="translate(0.000000, 0.420000)">
                <mask id="mask-52" fill="white">
                    <use xlink:href="#path-51"></use>
                </mask>
                <g id="Clip-1796"></g>
            </g>
            <g id="Group-1893" transform="translate(0.000000, 0.420000)">
                <mask id="mask-54" fill="white">
                    <use xlink:href="#path-53"></use>
                </mask>
                <g id="Clip-1890"></g>
            </g>
            <g id="Group-1964" transform="translate(0.000000, 0.420000)">
                <mask id="mask-56" fill="white">
                    <use xlink:href="#path-55"></use>
                </mask>
                <g id="Clip-1956"></g>
            </g>
            <g id="Group-2004" transform="translate(0.000000, 0.420000)">
                <mask id="mask-58" fill="white">
                    <use xlink:href="#path-57"></use>
                </mask>
                <g id="Clip-2002"></g>
            </g>
            <g id="Group-2086" transform="translate(0.000000, 0.420000)">
                <mask id="mask-60" fill="white">
                    <use xlink:href="#path-59"></use>
                </mask>
                <g id="Clip-2084"></g>
            </g>
            <g id="Group-2124" transform="translate(0.000000, 0.420000)">
                <mask id="mask-62" fill="white">
                    <use xlink:href="#path-61"></use>
                </mask>
                <g id="Clip-2109"></g>
            </g>
        </g>
    </g>
</svg>
